<svg id="Layer_5" enable-background="new 0 0 64 64" height="512" viewBox="0 0 64 64" width="512" xmlns="http://www.w3.org/2000/svg" xmlns:xlink="http://www.w3.org/1999/xlink"><linearGradient id="SVGID_1_" gradientUnits="userSpaceOnUse" x1="32" x2="32" y1="63" y2="1"><stop offset="0" stop-color="#9f2fff"/><stop offset="1" stop-color="#0bb1d3"/></linearGradient><path d="m32 17c8.301 0 24-1.254 24-6s-15.699-6-24-6-24 1.254-24 6 15.699 6 24 6zm0-10c14.234 0 22 2.643 22 4s-7.766 4-22 4-22-2.643-22-4 7.766-4 22-4zm21.625 15.418-.531-1.929c.639-.175 1.264-.362 1.872-.56l.619 1.902c-.638.208-1.292.403-1.96.587zm3.897-1.274-.722-1.866c.624-.242 1.221-.496 1.774-.757l.852 1.81c-.595.28-1.236.554-1.904.813zm-7.857 2.207-.395-1.961c.647-.13 1.29-.269 1.923-.417l.457 1.947c-.654.153-1.316.296-1.985.431zm-17.665 33.649c.665 0 1.333-.009 2-.023v3.609l-3.293-3.293-1.414 1.414 3.293 3.293c.646.645 1.503 1 2.414 1s1.769-.355 2.414-1l3.293-3.293-1.414-1.414-3.293 3.292v-3.669c13.73-.561 27-3.996 27-9.916v-36c0-6.495-15.972-10-31-10s-31 3.505-31 10v36c0 6.495 15.972 10 31 10zm0-2c-17.09 0-29-4.216-29-8v-8.297c1.191 1.031 2.906 1.975 5.119 2.813-.834 1.171-1.23 2.618-1.091 4.07.289 3.036 3.007 5.414 6.187 5.414h13.785c1.654 0 3-1.346 3-3v-10.586l3.293 3.293 1.414-1.414-3.293-3.293c-1.291-1.289-3.537-1.29-4.828 0l-3.293 3.293 1.414 1.414 3.293-3.292v10.585c0 .551-.448 1-1 1h-13.785c-2.16 0-4.003-1.583-4.196-3.604-.108-1.146.254-2.243 1.021-3.086.745-.819 1.801-1.294 2.905-1.31l1.233.005-.124-1.111c-.033-.293-.054-.591-.054-.894 0-4.411 3.589-8 8-8 1.275 0 2.502.298 3.646.886l.929.477.437-.949c1.792-3.896 5.713-6.414 9.988-6.414 6.065 0 11 4.935 11 11v1h1c1.637 0 3.166.647 4.306 1.821s1.741 2.725 1.691 4.364c-.096 3.207-2.918 5.815-6.291 5.815h-11.706c-1.654 0-3 1.346-3 3v2.978c-.659.013-1.324.022-2 .022zm4-.082v-2.918c0-.551.448-1 1-1h11.706c4.442 0 8.162-3.479 8.291-7.755.021-.712-.059-1.41-.217-2.083 1.785-.747 3.194-1.575 4.22-2.465v8.303c0 3.481-10.082 7.324-25 7.918zm20.08-15.641c-.352-.667-.798-1.291-1.339-1.849-1.294-1.333-2.962-2.156-4.775-2.372-.092-1.279-.372-2.506-.809-3.657 5.562-1.144 9.611-2.774 11.843-4.717v8.318c0 1.418-1.79 2.953-4.92 4.277zm-24.08-36.277c17.09 0 29 4.216 29 8s-11.91 8-29 8-29-4.216-29-8 11.91-8 29-8zm-29 11.723c4.738 4.1 17.159 6.277 29 6.277s24.262-2.177 29-6.277v8.277c0 2.03-3.955 4.806-12.735 6.539-2.246-3.901-6.45-6.539-11.265-6.539-4.722 0-9.076 2.596-11.355 6.692-1.163-.46-2.384-.692-3.645-.692-1.486 0-2.893.335-4.162.919-10.241-1.671-14.838-4.669-14.838-6.919zm0 11.939c2.32 2.019 6.589 3.709 12.396 4.849-2.077 1.834-3.396 4.507-3.396 7.489v.084c-.805.137-1.563.454-2.247.895-4.235-1.452-6.753-3.298-6.753-4.979zm32.249 2.558c-.569.147-1.121.367-1.64.654l-.969-1.749c.666-.37 1.376-.652 2.11-.841zm1.751-.22v-2c4.963 0 9 4.038 9 9 0 .37-.023.747-.069 1.121l-1.984-.242c.034-.288.053-.581.053-.879 0-3.86-3.141-7-7-7zm12 18h-2v-2h2zm-10-2h2v2h-2zm4 0h2v2h-2z" fill="url(#SVGID_1_)"/></svg>