<?xml version="1.0" encoding="utf-8"?>
<!-- Generator: Adobe Illustrator 24.1.1, SVG Export Plug-In . SVG Version: 6.00 Build 0)  -->
<svg version="1.1" id="Layer_1" xmlns="http://www.w3.org/2000/svg" xmlns:xlink="http://www.w3.org/1999/xlink" x="0px" y="0px"
	 viewBox="0 0 407 87.3" style="enable-background:new 0 0 407 87.3;" xml:space="preserve">
<style type="text/css">
	.st0{opacity:0.9;}
	.st1{fill:#0070E2;}
	.st2{fill:#F7B200;}
	.st3{fill:#009468;}
	.st4{fill:#FF2E5F;}
	.st5{fill:#CCCCCC;}
</style>
<g class="st0">
	<path class="st1" d="M42.5,43.9c0.6-9.4-6.5-17.5-15.9-18.1c-9.4-0.6-17.5,6.5-18.1,15.9C8,51,15.1,59.1,24.4,59.7
		C33.8,60.3,41.9,53.2,42.5,43.9C42.5,43.9,42.5,43.9,42.5,43.9z"/>
	<path class="st2" d="M131.2,43.9c0.6-9.4-6.5-17.5-15.9-18.1s-17.5,6.5-18.1,15.9c-0.6,9.4,6.5,17.5,15.9,18.1
		C122.4,60.3,130.5,53.2,131.2,43.9z"/>
	<path class="st3" d="M220.8,44c0.6-9.4-6.6-17.5-16.1-18.1c-9.5-0.6-17.8,6.5-18.4,15.9c-0.6,9.4,6.6,17.5,16.1,18.1c0,0,0,0,0,0
		C212,60.5,220.2,53.4,220.8,44L220.8,44z"/>
	<path class="st4" d="M310.3,44.8c0.6-9.4-6.5-17.5-15.9-18.1c-9.4-0.6-17.5,6.5-18.1,15.9c-0.6,9.4,6.5,17.5,15.9,18.1
		C301.6,61.3,309.7,54.2,310.3,44.8z"/>
	<path class="st5" d="M399.4,44c0.6-9.4-6.5-17.5-15.9-18.1c-9.4-0.6-17.5,6.5-18.1,15.9c-0.6,9.4,6.5,17.5,15.9,18.1
		C390.6,60.5,398.7,53.4,399.4,44z"/>
</g>
</svg>
